<svg xmlns="http://www.w3.org/2000/svg" viewBox="0 0 420 120" fill="#fd5000"><path d="M0 117.6V2.5h55.2C76.9 2.6 95 12.4 95 32.6c0 14.2-12 22.8-24.9 25.2v.3c15.3 2.1 27.7 11.8 27.7 28.2 0 33.5-42.7 31.3-43.9 31.3H0zm50.6-22.3c8 0 13.9-4.8 13.9-12 0-6.4-4.5-12.4-11.6-12.9h-21v24.9h18.7zM31.9 48.2l16.3-.2c8.6 0 14.2-3.4 14.2-12.1 0-6.5-5.6-11.2-13.1-11.2H31.9v23.5z"/><path d="M183.4 74.6H160V52.2h55.3v61.6c-25.8 3.8-30.8 6.2-58.5 6.2-35.9-1.1-57.7-23.9-57.7-60s21.8-58.8 57.7-60c27.9-.8 57.3 3.4 57.7 36.8h-31.9c-1.6-11.2-10.4-14.5-20.9-14.5-21.5 0-29.2 19-29.2 37.6 0 22.6 11.3 37.6 34.3 37.6 5.9 0 11.8-1 16.6-1.9v-21z"/><path d="M257.9 120a33.4 33.4 0 0 1-34.3-32.4h11.2c.3 17.7 13.4 22.8 28.9 22.8 12.9 0 27.7-7.5 27.7-22.2 0-11.5-8.3-16.9-18-20.1-18.7-6.2-47-12.1-47-37C226.4 11 244.9 0 263.1 0c15.1 0 34.9 5.3 37.5 27.4h-11.2c-.3-14.2-13.2-17.9-25-17.9-12 0-26.8 6.1-26.8 20.1 0 32.7 65.1 17.9 65.1 57.6-.2 25.1-21.7 32.8-44.8 32.8z"/><path d="M324.9 2.5V77c.8 20.9 12.8 33.5 31.7 33.5 19 0 30.9-12.6 31.7-33.5V2.5h10.4v74.6c-.3 24.7-14.2 42.9-42.1 42.9s-41.8-18.2-42.1-42.9V2.5h10.4z"/><path d="M405.4 109a7 7 0 0 1 7-7 7 7 0 0 1 7 7 7 7 0 0 1-7 7 7 7 0 0 1-7-7zm12.3 0c0-3.3-2.4-5.6-5.3-5.6a5.4 5.4 0 0 0-5.3 5.6c0 3.3 2.4 5.6 5.3 5.6 2.9.1 5.3-2.3 5.3-5.6zm-8-4h2.9c1.9 0 2.9.7 2.9 2.3 0 1.4-.8 2-2.1 2.1l2.1 3.5H414l-2-3.4h-.9v3.4h-1.5l.1-7.9zm1.5 3.4h1.3c.9 0 1.6-.1 1.6-1.2 0-.9-.9-1.1-1.6-1.1h-1.3v2.3z" /></svg>
