<svg xmlns="http://www.w3.org/2000/svg" viewBox="0 0 274.9 83.4"><path fill="none" stroke="#552500" stroke-width=".8" d="M123.2.2v63.2"/><path fill="#fd5000" d="M8.6 28.4h4.3c2.3 0 3.8-.9 3.8-3.2 0-1.7-1.5-3-3.5-3H8.6v6.2zm5 12.5c2.1 0 3.7-1.3 3.7-3.2a3.3 3.3 0 0 0-3.1-3.5H8.6v6.6l5 .1zM.1 46.8V16.2h14.7c5.8 0 10.6 2.6 10.6 8 0 3.8-3.2 6.1-6.6 6.7v.1c4.1.5 7.4 3.1 7.4 7.5 0 8.9-11.4 8.3-11.7 8.3H.1zm48.8-11.4h-6.2v-5.9h14.7v16.4c-6.9 1-8.2 1.7-15.6 1.7-9.5-.3-15.4-6.4-15.4-16s5.8-15.7 15.4-16c7.4-.2 15.2.9 15.4 9.8h-8.5c-.4-3-2.8-3.9-5.6-3.9-5.7 0-7.8 5-7.8 10 0 6 3 10 9.1 10 1.5 0 3-.2 4.4-.5l.1-5.6zm20.8 12.2c-4.9.1-9-3.7-9.1-8.6h3c.1 4.7 3.6 6.1 7.7 6.1 3.4 0 7.4-2 7.4-5.9 0-3-2.2-4.5-4.8-5.3-5-1.7-12.5-3.2-12.5-9.8 0-5.3 4.9-8.3 9.7-8.3 4 0 9.3 1.4 10 7.3H78c0-3.8-3.5-4.7-6.6-4.7s-7.1 1.6-7.1 5.3c0 8.7 17.3 4.7 17.3 15.3-.1 6.6-5.8 8.6-11.9 8.6m17.8-31.2v19.8c.2 5.5 3.4 8.9 8.4 8.9s8.2-3.3 8.4-8.9V16.4h2.8v19.8c-.1 6.6-3.8 11.4-11.2 11.4s-11.1-4.9-11.2-11.4V16.4h2.8zm22.8 29.7h.5l.2.2v.7h.7v-.5l-.2-.6-.4-.2.5-.2.2-.5c0-.3-.1-.5-.3-.6l-.5-.1h-1.3V47h.7l-.1-.9zm.7-.6-.4.1h-.3v-.8h.2l.4.1.2.3-.1.3m1.4-1.5c-.4-.5-1.1-.7-1.7-.7-.6 0-1.2.2-1.7.7-.5.4-.8 1.1-.8 1.8 0 1.3 1.1 2.4 2.4 2.4 1.3 0 2.4-1.1 2.4-2.4.1-.7-.2-1.4-.6-1.8m-.3.3c.4.4.6.9.6 1.4 0 .5-.2 1-.6 1.4a2 2 0 0 1-2.8-.1c-.3-.4-.5-.8-.5-1.3s.2-1 .6-1.4a2 2 0 0 1 1.4-.6c.4 0 .9.2 1.3.6"/><path fill="#552500" d="M263 58.2c0 1 .3 1.9 1 2.6a5.6 5.6 0 0 0 4.6 1.6c4.2 0 6.1-2.3 6.1-4.6 0-1.8-1.1-3.1-3.6-3.7l-2.4-.7c-1.2-.3-1.8-.5-1.8-1.4s.8-1.3 1.9-1.3c.9-.1 1.8.5 1.9 1.4v.2h3.6c-.1-2.7-2.3-4-5.1-4-3.5 0-5.9 1.6-5.9 4.2s2.3 3.4 3.4 3.7l2.4.7c1.5.4 1.9.9 1.9 1.5 0 .8-.7 1.6-2.1 1.6a2 2 0 0 1-2.2-1.8H263zm-15.4 3.9h3.9v-7.8c0-.7.1-1.4.5-2 .5-.6 1.2-1 2-1a2 2 0 0 1 2 1.1c.2.5.3 1 .2 1.5v8.3h4V55c0-2.5-.1-3.2-.4-4a4 4 0 0 0-4.1-2.5c-1.8-.1-3.5.8-4.4 2.3l-.1-2h-3.8l.1 2.4.1 10.9zm-13.1-6.5c0-1.2 0-4.5 2.9-4.5 2.6 0 2.9 2.5 2.9 4.2 0 3.5-1.2 4.6-2.9 4.6-1.9 0-2.9-1.3-2.9-4.3m-4 0c0 4.7 3 7 6.8 7 4.9 0 7-3.4 7-7.2s-2.1-7-6.9-7c-5.3 0-6.9 3.9-6.9 7.2m-7 6.5h3.9V48.7h-3.9v13.4zm-.2-15.7h4.2V43h-4.2v3.4zm-2.5 13-1.3.1c-1.8 0-1.8-.8-1.8-2v-6h3.2v-2.6h-3.2v-4.1l-3.9 1.5v2.6h-2.6v2.6h2.6v7.3c0 1.1 0 3.6 3.9 3.6 1 0 2.1-.2 3.1-.4v-2.6zm-10.5-5.9c0-3.6-3-5-5.5-5-1.8 0-6.2.8-6.2 6.9-.1 1.9.5 3.8 1.7 5.3a5.6 5.6 0 0 0 4.6 1.8c1.4.1 2.7-.4 3.8-1.3a5 5 0 0 0 1.7-4h-3.9c-.2 2.4-1.4 2.6-1.8 2.6-.4 0-.8-.1-1.1-.5-.9-1-1-3.4-1-4.1 0-1.5.2-4.3 2.1-4.3 1.5 0 1.7 2 1.7 2.5l3.9.1zm-22.6.5c.1-1.6.8-3 2.5-3 2.3 0 2.3 2.4 2.3 3h-4.8zm8.8 2.5c.2-1.7-.1-3.4-.8-4.9a5.6 5.6 0 0 0-5.4-3.2c-1.3 0-2.6.4-3.8 1.1-2.3 1.6-2.8 4.2-2.8 6.3-.1 1.9.5 3.8 1.7 5.2 1.3 1.1 3 1.7 4.7 1.7 1.7.1 3.4-.4 4.7-1.6.8-.8 1.2-1.8 1.3-2.9h-3.6a2.2 2.2 0 0 1-2.3 1.8c-2.7 0-2.7-2.7-2.7-3.6h9zm-19.7 5.7h3.9V43h-3.9v19.2zm-7.7 0h3.9V43h-3.9v19.2zm-13-6.6c0-1.2 0-4.5 2.9-4.5 2.6 0 2.9 2.5 2.9 4.2 0 3.5-1.2 4.6-2.9 4.6-1.9 0-2.9-1.3-2.9-4.3m-4 0c0 4.7 3 7 6.8 7 4.9 0 7-3.4 7-7.2s-2.1-7-6.9-7c-5.2.1-6.9 4-6.9 7.2m-2.3-6.4c0-3.8-2.9-6.4-7.1-6.4-5.4 0-8.8 4-8.8 10.1 0 4.8 2.1 9.6 8.8 9.6 2.1.1 4.1-.7 5.6-2.1a6.6 6.6 0 0 0 1.7-4.5h-4.3c-.1 2.5-1.7 3.6-3.4 3.6-4 0-4-5.4-4-6.6 0-4 1.3-7.1 4.3-7.1 2.8 0 3 2.7 3.1 3.4h4.1zm80.4-11.1h3.9V19h-3.9v19.1zm-7.5-6.3c0 1.4-.1 2.5-.7 3.3-.4.5-1 .8-1.7.8-1 0-1.9-.8-1.9-1.8V34c0-1.6 1.8-2.4 4.3-2.2m4 6.3c-.2-1.1-.3-2.3-.3-3.4v-5.4c.1-1.2-.3-2.3-.9-3.3-1.3-1.5-3.7-1.7-4.8-1.7-1.4-.1-2.9.3-4.1 1.1-1 .7-1.6 1.9-1.5 3.1h3.8l.3-1.2c.6-.8 1.8-1 2.7-.3l.6.7c.2.6.2 1.2.2 1.8-1.8-.1-3.6.2-5.3.7a4.5 4.5 0 0 0-2.8 4.2c0 1.1.4 2.2 1.2 2.9a5.1 5.1 0 0 0 7.2-1l.1-.1.1 1.8h3.5zm-27-13.3 4.9 13.4h4.4l4.8-13.4H210l-3.1 9.1-3-9.1h-4.2zm-6.1 13.3h3.9V24.7h-3.9v13.4zm-.2-15.7h4.2V19h-4.2v3.4zm-16.2 15.7h3.9v-8.2c-.1-1.3.8-2.5 2.1-2.7h.3c2.2 0 2.2 2.1 2.2 2.9v8h3.9V30c.1-1.3-.2-2.5-.9-3.6a4.8 4.8 0 0 0-3.9-1.8c-1.6-.1-3 .7-3.9 2V19H177v19.1zm-2.1-8.6c0-3.6-3-5-5.5-5-1.8 0-6.2.8-6.2 6.9-.1 1.9.5 3.8 1.7 5.3a5.6 5.6 0 0 0 4.6 1.8c1.4.1 2.7-.4 3.8-1.2 1.2-1 1.8-2.5 1.7-4h-3.9c-.2 2.4-1.4 2.6-1.8 2.6-.4 0-.8-.1-1.1-.5-.9-1-1-3.4-1-4.1 0-1.5.2-4.3 2.1-4.3 1.5 0 1.7 2 1.7 2.5h3.9zm-21 8.6h3.9v-6.6c0-1.7.2-3.7 4.2-3.3v-3.5c-3.2-.2-4.1 1.5-4.6 2.6l-.1-2.6h-3.7l.2 3.3.1 10.1zm-14.6-7.2 2.8-8.2 2.7 8.2h-5.5zM140 19l-6.9 19.2h3.9l1.4-4.1h7.6l1.4 4.1h4.1L144.9 19H140zm50.5-6.1h1.2V9.4c0-1.1.3-2 1.8-2h.6V6.3h-.8c-.7.1-1.4.6-1.6 1.3V6.4h-1.2l.1 1.3-.1 5.2zm-7.2-3.3c0-2 1.3-2.5 2.1-2.5 1.1 0 1.9.9 1.9 2.5 0 2-1.1 2.6-2 2.6-1.4 0-2-1.2-2-2.6m-1.3.1c0 1.9 1.1 3.4 3.2 3.4 1.8.1 3.2-1.3 3.3-3v-.5c0-1.4-.5-3.4-3.2-3.4S182 8.1 182 9.7m-.6-6.2-1-.1c-.6-.1-1.3.2-1.6.7-.3.5-.3 1-.3 1.6v.7h-1.3v.9h1.3v5.6h1.2V7.2h1.5v-.8h-1.5v-1c0-.4 0-1 1-1h.7v-.9zm-11.8 9.4h1.2V9.4c0-1.1.3-2 1.8-2h.6V6.3h-.9c-.7.1-1.4.6-1.6 1.3V6.4h-1.2l.1 1.3v5.2zM163.1 9c-.1-1 .6-1.8 1.6-1.9h.2c1.5 0 1.6 1.3 1.6 1.9h-3.4zm4.6.9c0-1.1.1-3.7-2.8-3.7-.6 0-1.3.1-1.8.5-.9.7-1.4 1.9-1.3 3.1 0 2.1 1 3.3 3 3.3.8.1 1.7-.3 2.2-.9.3-.4.5-.9.6-1.4h-1.2c0 .8-.7 1.4-1.5 1.4-1.3 0-1.9-1-1.9-2.4l4.7.1zM157 7.2h1.1v4.4c0 1.1.5 1.4 1.6 1.4l1-.1V12l-.6.1c-.9 0-.9-.6-.9-.9v-4h1.5v-.8h-1.5V4.6l-1.1.4v1.4H157v.8zm-6.9 5.7h1.2V9.2c-.1-1 .6-1.8 1.6-1.9h.1c.4 0 .8.2 1.1.4.3.3.4.7.4 1.1V13h1.2V8.5c0-1.2-.9-2.2-2.1-2.2h-.3a2 2 0 0 0-2.1 1.2v-1H150l.1 6.4zM143.6 9c-.1-1 .6-1.8 1.6-1.9h.2c1.5 0 1.6 1.3 1.6 1.9h-3.4zm4.7.9c0-1.1.1-3.7-2.8-3.7-.6 0-1.3.1-1.8.5-.9.7-1.4 1.9-1.3 3.1 0 2.1 1 3.3 3 3.3.8.1 1.7-.3 2.2-.9.3-.4.5-.9.6-1.4H147c0 .8-.7 1.4-1.5 1.4h-.1c-1.3 0-1.9-1-1.9-2.4l4.8.1zm-7.1-3.8c-.2-2.1-2-2.7-3.4-2.7-3.3 0-4.1 2.9-4.1 4.9 0 1.8.6 4.7 3.9 4.7 1.6 0 3.3-.8 3.5-2.6h-1.4c0 .4-.2.7-.4 1-.4.4-1 .6-1.5.6-2.1 0-2.6-1.9-2.6-3.7 0-1.6.4-3.9 2.7-3.9 1-.1 1.9.6 2 1.5V6l1.3.1zm125.3 67.5 3.2 5.9v3.4h2v-3.4l3.2-5.9h-2.1l-2 4.3-1.9-4.3h-2.4zm-6.3 9.3h2v-7.8h2.8v-1.6h-7.6v1.6h2.8v7.8zm-7.2 0h2v-9.4h-2v9.4zm-10.4-3c0 .9 0 3.2 3.6 3.2 2.6 0 4-1.4 4-3s-1.6-2.3-3.2-2.7c-1.4-.3-2-.5-2-1.4s.6-1.3 1.6-1.3c.8 0 1.4.5 1.5 1.3v.1h1.9c0-.6-.2-1.2-.5-1.7a3.4 3.4 0 0 0-2.8-1.1c-2.6 0-3.7 1.4-3.7 2.9s1.2 2.3 3.5 2.8c1.2.3 1.8.4 1.8 1.3s-.7 1.3-1.8 1.3c-.8.1-1.6-.5-1.7-1.3v-.4h-2.2zM235 75h1.4c.5-.1.9 0 1.3.2.3.2.5.6.5 1s-.2.8-.5 1.1c-.3.2-.6.3-1 .3H235V75zm-2 7.9h2.1v-3.8h1.8c.3 0 .8 0 1 .5l.5 3.3h2.2l-.3-.7-.3-1.8c-.2-1.1-.3-2-1.7-2.2a2.3 2.3 0 0 0 1.9-2.7c-.1-.5-.4-1-.8-1.4-.8-.6-1.9-.8-2.9-.6H233v9.4zm-9.1 0h6.4v-1.6h-4.4v-2.5h4v-1.6h-4V75h4.3v-1.5h-6.3v9.4zm-11.6-9.3 3.5 9.4h2.2l3.5-9.4h-2L217 81l-2.4-7.4h-2.3zm-4.4 9.3h2v-9.4h-2v9.4zm-11.4 0h1.9v-7.8l3.6 7.8h2.8v-9.4H203v7.4l-3.5-7.4h-2.9l-.1 9.4zM185 73.6v5.6c-.1.8.1 1.6.5 2.3a4 4 0 0 0 3.5 1.6c1.9 0 4.1-.9 4.1-3.7v-5.9h-2v5.6c.1.6 0 1.1-.3 1.6-.4.6-1.1.9-1.8.8-2 0-2-1.3-2-2.3v-5.7h-2zm-14.3 9.3h6.4v-1.6h-4.4v-2.5h4v-1.6h-4V75h4.3v-1.5h-6.3v9.4zm-7.3 0h2v-7.8h2.8v-1.6h-7.6v1.6h2.8v7.8zm-9.1-3.5 1.4-4 1.3 4h-2.7zm.2-5.9-3.4 9.4h1.9l.7-2h3.7l.7 2h2l-3.2-9.4h-2.4zm-8.5 9.4h2v-7.8h2.8v-1.6h-7.6v1.6h2.8v7.8zm-12.3-3c0 .9 0 3.2 3.6 3.2 2.6 0 4-1.4 4-3s-1.6-2.3-3.2-2.7c-1.4-.3-2-.5-2-1.4s.6-1.3 1.6-1.3c.8 0 1.4.6 1.5 1.3v.1h1.9c0-.6-.2-1.2-.5-1.7a3.4 3.4 0 0 0-2.8-1.1c-2.6 0-3.7 1.4-3.7 2.9s1.2 2.3 3.5 2.8c1.2.3 1.8.4 1.8 1.3s-.7 1.3-1.8 1.3c-.8.1-1.6-.5-1.7-1.3v-.5l-2.2.1zm-16 3h1.9v-7.8l3.6 7.8h2.8v-9.4h-1.9v7.4l-3.5-7.4h-2.9v9.4zm-9.3 0h6.4v-1.6h-4.4v-2.5h4v-1.6h-4V75h4.3v-1.5h-6.3v9.4zm-9.4 0h6.4v-1.6H101v-2.5h4v-1.6h-4V75h4.3v-1.5H99v9.4zM90.8 75h1.4c.4-.1.9 0 1.3.2.3.2.5.6.5 1s-.2.8-.5 1.1c-.3.2-.6.3-1 .3h-1.7V75zm-2 7.9h2.1v-3.8h1.8c.3 0 .8 0 1 .5l.5 3.3h2.2c-.1-.2-.3-.4-.3-.7l-.3-1.8c-.2-1.2-.3-2-1.7-2.2a2.4 2.4 0 0 0 1.2-4.1c-.8-.6-1.8-.8-2.8-.6h-3.6l-.1 9.4zm-3-6.5a3 3 0 0 0-.7-2c-.9-.8-2-1.2-3.2-1.2-2.9 0-4.9 1.8-4.9 5.2-.1 1.3.4 2.6 1.2 3.5.7.7 1.8 1.2 4 1.2 1.2 0 2.3-.1 3.4-.5v-4.7h-3.9v1.6h1.8v2c-.5.2-1 .2-1.5.2-.8.1-1.6-.2-2.2-.8-.6-.7-.8-1.6-.8-2.5 0-1.4.4-3.6 2.7-3.6a2 2 0 0 1 1.6.7c.2.3.3.6.3 1l2.2-.1zm-16.5 0a3 3 0 0 0-.7-2c-.9-.8-2-1.2-3.2-1.2-2.8 0-4.9 1.8-4.9 5.1-.1 1.3.4 2.6 1.2 3.5.7.7 1.8 1.2 4 1.2 1.2 0 2.3-.1 3.4-.5v-4.7h-3.8v1.6h1.8v2c-.5.2-1 .2-1.5.2-.8.1-1.6-.2-2.2-.8-.6-.7-.8-1.6-.8-2.5 0-1.4.5-3.6 2.7-3.6a2 2 0 0 1 1.6.7c.2.3.3.6.2 1h2.2zm-19.9 6.5h1.9v-7.8l3.6 7.8h2.8v-9.4h-1.9v7.4l-3.5-7.4h-2.9v9.4zm-5.2 0h2v-9.4h-2v9.4zm-8.5 0h6.1v-1.6h-4v-7.8h-2l-.1 9.4zm-15.1-9.3 2.3 9.4h2.3l1.8-7.2 1.7 7.2H31l2.4-9.4h-2l-1.5 7-1.6-7H26l-1.8 7-1.5-7h-2.1zm-8.8 4.6c-.1-1 .2-1.9.7-2.7.4-.5 1.1-.8 1.7-.8 1 0 1.9.7 2.1 1.7.2.5.2 1.1.2 1.7.1 1-.1 1.9-.6 2.7-.4.6-1.1.9-1.8.9-.7.1-1.3-.2-1.7-.8a6 6 0 0 1-.6-2.7m-2.1.2a5 5 0 0 0 1.2 3.5c.9.9 2.1 1.3 3.3 1.3 1.3 0 2.5-.4 3.3-1.3a6.3 6.3 0 0 0 1.2-3.7c0-1.3-.4-2.5-1.2-3.5a4.6 4.6 0 0 0-3.3-1.3c-3.3-.1-4.5 2.5-4.5 5m-7.8.4h1.2c1 0 2.2 0 2.2 1.3s-1 1.3-2 1.3H1.9v-2.6zm0-3.9h1.4c.7 0 1.7 0 1.7 1.2s-1 1.2-1.6 1.2H1.9v-2.4zm-1.9 8h3.5c.8 0 1.6-.1 2.4-.4.8-.4 1.4-1.3 1.4-2.2 0-1.2-.8-2.2-2-2.3.4-.1.8-.3 1.1-.6a2.3 2.3 0 0 0-.6-3.4c-.7-.3-1.5-.5-2.3-.4H0v9.3z"/></svg>
