<svg xmlns="http://www.w3.org/2000/svg" viewBox="0 0 180 180"><ellipse cx="90" cy="89" fill="#fff" rx="87" ry="73" transform="rotate(-10 90 89)"/><path d="m18 72 4 30c0 7 2 9 10 8 10-2 20-3 31 0 6 2 7 5 5 11-4 7-6 15-9 22-1 2-2 4 1 6s6 1 8-2l19-29c3-3 5-6 10-4s2 6 2 9c-2 11-5 23-6 35-1 7-4 10-11 9-20-3-40-8-57-18C5 138-5 106 3 81c11-38 41-56 76-67 3-1 5-1 6 4l6 57c1 6-2 10-8 14 3-17-9-22-19-29L46 46c-3-2-6-4-8 0-3 3 0 5 2 7l28 28c2 2 8 4 4 9-3 4-7 2-11 0L18 72zm119 30c8-3 16-3 24-5 3-1 11 2 8-5-1-6-3-14-12-10-10 4-20 4-29 7-4 1-7 2-9-3-3-6 1-6 5-8 13-6 27-10 40-18-9-8-18-11-28-3-6 6-14 7-21 9-5 1-8-1-10-4-3-4 1-5 3-7 11-9 8-22 11-33 1-7 4-7 9-5 34 14 53 45 52 82-1 29-41 61-61 62-7 0-6-4-6-7-2-12 2-25-4-37-2-4 2-4 4-5 3-1 7-3 8 2l3 11c2 5 2 14 8 14 8-1 17-5 24-11 3-3-1-6-3-8l-16-18z"/></svg>
