<svg xmlns="http://www.w3.org/2000/svg" viewBox="0 0 296.4 83.4"><path fill="none" stroke="#552500" stroke-width=".8" d="M123.2 0v63.1"/><path fill="#fd5000" d="M8.5 28.1h4.3c2.3 0 3.8-.9 3.8-3.2 0-1.7-1.5-3-3.5-3H8.5v6.2zm5 12.5c2.1 0 3.7-1.3 3.7-3.2 0-1.7-1.2-3.3-3.1-3.4H8.5v6.6h5zm-13.4 6V16h14.7c5.8 0 10.6 2.6 10.6 8 0 3.8-3.2 6.1-6.6 6.7v.1c4.1.5 7.4 3.1 7.4 7.5 0 8.9-11.4 8.3-11.7 8.3H.1zm48.7-11.5h-6.2v-5.9h14.7v16.4c-6.9 1-8.2 1.7-15.6 1.7-9.5-.3-15.4-6.4-15.4-16s5.8-15.7 15.4-15.9c7.4-.2 15.2.9 15.4 9.8h-8.5c-.4-3-2.8-3.9-5.6-3.9-5.7 0-7.8 5-7.8 10 0 6 3 10 9.1 10 1.6 0 3.1-.3 4.4-.5v-5.7zm20.8 12.3c-4.9 0-9-3.6-9.1-8.6h3c.1 4.7 3.6 6.1 7.7 6.1 3.4 0 7.4-2 7.4-5.9 0-3-2.2-4.5-4.8-5.3-5-1.7-12.5-3.2-12.5-9.8 0-5.3 4.9-8.3 9.7-8.3 4 0 9.3 1.4 10 7.3h-3c-.1-3.8-3.5-4.7-6.6-4.7-3.2 0-7.1 1.6-7.1 5.3 0 8.7 17.3 4.7 17.3 15.3-.1 6.5-5.8 8.6-12 8.6m17.8-31.2V36c.2 5.5 3.4 8.9 8.4 8.9s8.2-3.4 8.4-8.9V16.2h2.8V36c-.1 6.6-3.8 11.4-11.2 11.4-7.4 0-11.1-4.8-11.2-11.4V16.2h2.8zm22.8 29.6h.5l.2.2v.7h.7v-.5l-.2-.6-.4-.2.5-.2.2-.5c0-.3-.1-.5-.4-.6l-.5-.1h-1.3v2.7h.7v-.9zm.7-.5-.4.1h-.3v-.8h.2l.4.1.2.3-.1.3m1.4-1.5c-.5-.5-1-.7-1.7-.7a2 2 0 0 0-1.6.7c-.5.5-.7 1-.7 1.7s.2 1.2.7 1.7c.5.5 1 .7 1.7.7s1.2-.2 1.7-.7c.5-.5.7-1 .7-1.7-.1-.7-.3-1.3-.8-1.7m-.3.3c.4.4.6.9.6 1.4 0 .6-.2 1-.6 1.4a2 2 0 0 1-1.4.6 2 2 0 0 1-1.4-.6 2 2 0 0 1-.6-1.4c0-.5.2-1 .6-1.4a2 2 0 0 1 1.4-.6c.5 0 1 .2 1.4.6"/><path fill="#552500" d="m288.1 73.8 3.2 5.9v3.4h2v-3.4l3.2-5.9h-2.1l-2 4.3-1.9-4.3h-2.4zm-7.1 9.4h2v-7.8h2.8v-1.6h-7.6v1.6h2.8v7.8zm-8 0h2v-9.4h-2v9.4zm-11.1-3c0 .9 0 3.2 3.6 3.2 2.6 0 4-1.4 4-3.1 0-1.8-1.6-2.3-3.2-2.7-1.4-.3-2-.5-2-1.4 0-.8.6-1.3 1.5-1.3 1.4 0 1.5 1.1 1.5 1.4h1.9c0-.3 0-1.1-.5-1.7-.7-.9-1.9-1.1-2.8-1.1-2.6 0-3.7 1.4-3.7 2.9 0 1.6 1.2 2.3 3.5 2.8 1.2.3 1.8.4 1.8 1.3 0 .8-.7 1.3-1.8 1.3-1.7 0-1.7-1.3-1.7-1.8h-2.1zm-8.4-4.9h1.4c.6 0 1 0 1.3.2.2.1.5.4.5 1.1 0 .7-.4 1-.5 1.1-.3.3-.8.3-1 .3h-1.6v-2.7zm-2 7.9h2.1v-3.8h1.8c.3 0 .8 0 1 .5l.5 3.3h2.2l-.3-.7-.3-1.8c-.2-1.2-.3-2-1.7-2.2.5-.1 2-.5 2-2.3 0-.6-.2-1.3-.8-1.8-.8-.6-1.8-.6-2.8-.6h-3.6v9.4zm-9.9 0h6.4v-1.6h-4.4v-2.5h4v-1.5h-4v-2.2h4.3v-1.5h-6.3v9.3zm-12.4-9.4 3.5 9.4h2.2l3.5-9.4h-2l-2.5 7.4-2.5-7.4h-2.2zm-5.2 9.4h2v-9.4h-2v9.4zm-12.1 0h1.9v-7.8l3.6 7.8h2.8v-9.4h-1.9v7.4l-3.5-7.4h-2.9v9.4zm-11.2-9.4v5.6c0 .9 0 1.6.5 2.3.9 1.4 2.6 1.6 3.5 1.6 1.9 0 4.1-.9 4.1-3.7v-5.9h-2v5.6c0 .9-.1 1.3-.3 1.6-.5.8-1.5.8-1.8.8-2 0-2-1.3-2-2.3v-5.7h-2zm-15.9 9.4h6.4v-1.6h-4.4v-2.5h4v-1.5h-4v-2.2h4.3v-1.5h-6.3v9.3zm-8.1 0h2v-7.8h2.8v-1.6h-7.6v1.6h2.8v7.8zm-9.9-3.6 1.4-4 1.3 4h-2.7zm.2-5.8-3.4 9.4h1.9l.7-2h3.7l.7 2h2l-3.3-9.4H167zm-9.3 9.4h2v-7.8h2.8v-1.6h-7.6v1.6h2.8v7.8zm-13.1-3c0 .9 0 3.2 3.6 3.2 2.6 0 4-1.4 4-3.1 0-1.8-1.6-2.3-3.2-2.7-1.4-.3-2-.5-2-1.4 0-.8.6-1.3 1.5-1.3 1.4 0 1.5 1.1 1.5 1.4h1.9c0-.3 0-1.1-.5-1.7-.7-.9-1.9-1.1-2.8-1.1-2.6 0-3.7 1.4-3.7 2.9 0 1.6 1.2 2.3 3.5 2.8 1.2.3 1.8.4 1.8 1.3 0 .8-.7 1.3-1.8 1.3-1.7 0-1.7-1.3-1.7-1.8h-2.1zm-17.6 3h1.9v-7.8l3.6 7.8h2.8v-9.4h-1.9v7.4l-3.5-7.4H127v9.4zm-10.1 0h6.4v-1.6h-4.4v-2.5h4v-1.5h-4v-2.2h4.3v-1.5h-6.3v9.3zm-10.1 0h6.4v-1.6h-4.4v-2.5h4v-1.5h-4v-2.2h4.3v-1.5h-6.3v9.3zm-9.1-7.9h1.4c.6 0 1 0 1.3.2.2.1.5.4.5 1.1 0 .7-.4 1-.5 1.1-.3.3-.8.3-1 .3h-1.6v-2.7zm-1.9 7.9h2.1v-3.8h1.8c.3 0 .8 0 1 .5l.5 3.3h2.2l-.3-.7-.3-1.8c-.2-1.2-.3-2-1.7-2.2.5-.1 2-.5 2-2.3 0-.6-.2-1.3-.8-1.8-.8-.6-1.8-.6-2.8-.6h-3.6v9.4zM92 76.7c0-.5-.1-1.2-.7-2-.7-.8-2-1.2-3.2-1.2-2.8 0-4.9 1.8-4.9 5.1 0 1 .2 2.5 1.2 3.5.7.7 1.8 1.2 4 1.2 1.9 0 2.8-.3 3.4-.5v-4.7H88v1.6h1.8v2c-.2.1-.6.2-1.5.2-1.1 0-1.7-.3-2.2-.8-.7-.7-.8-1.9-.8-2.5 0-1.4.5-3.6 2.7-3.6.4 0 1.2.1 1.6.7l.3.9H92zm-18.1 0c0-.5-.1-1.2-.7-2-.7-.8-2-1.2-3.2-1.2-2.8 0-4.9 1.8-4.9 5.1 0 1 .2 2.5 1.2 3.5.7.7 1.8 1.2 4 1.2 1.9 0 2.8-.3 3.4-.5v-4.7H70v1.6h1.8v2c-.2.1-.6.2-1.5.2-1.1 0-1.7-.3-2.2-.8-.7-.7-.8-1.9-.8-2.5 0-1.4.5-3.6 2.7-3.6.4 0 1.2.1 1.6.7l.3.9h2zm-20.6 6.5h1.9v-7.8l3.6 7.8h2.8v-9.4h-1.9v7.4l-3.5-7.4h-2.9v9.4zm-6 0h2v-9.4h-2v9.4zm-9.2 0h6.1v-1.6h-4v-7.8h-2.1v9.4zm-15.9-9.4 2.3 9.4h2.3l1.8-7.2 1.7 7.2h2.2l2.4-9.4H33l-1.5 7-1.7-7h-2.3l-1.8 7-1.5-7h-2zm-9.6 4.7c0-1.1.2-2.1.7-2.7.4-.5 1-.8 1.7-.8 1 0 1.8.5 2.1 1.7.2.6.2 1.2.2 1.7 0 1.5-.3 2.2-.6 2.7-.4.6-.9.9-1.8.9a2 2 0 0 1-1.7-.8c-.4-.8-.6-1.8-.6-2.7m-2.1.1c0 .9.1 2.4 1.2 3.5.9.9 2.1 1.3 3.3 1.3.8 0 2.3-.2 3.3-1.3.8-.9 1.2-2.3 1.2-3.7 0-.9-.2-2.4-1.2-3.5-.9-1-2.3-1.3-3.3-1.3-3.4 0-4.5 2.5-4.5 5m-8.6.5h1.2c1 0 2.2 0 2.2 1.3s-1 1.3-2 1.3H1.9v-2.6zm0-3.9h1.4c.7 0 1.7 0 1.7 1.2s-1 1.2-1.6 1.2H1.9v-2.4zm-1.9 8h3.5c.4 0 1.6 0 2.4-.4.7-.4 1.4-1.1 1.4-2.2 0-1-.6-2-2-2.3.5-.1 1-.6 1.1-.6.5-.4.5-1.1.5-1.4 0-.5-.2-1.5-1.1-2-.7-.4-1.8-.4-2.3-.4H0v9.3zm266.3-40.5c.1-1.2.6-2.3 1.9-2.3 1.7 0 1.8 1.8 1.8 2.3h-3.7zm6.7 1.8c0-.8.1-2.3-.6-3.7-.9-1.9-2.6-2.4-4.1-2.4-1.1 0-2.1.3-2.8.8-1.7 1.2-2.1 3.1-2.1 4.8 0 1.6.4 3 1.3 3.9a5.2 5.2 0 0 0 3.6 1.3c1.5 0 2.8-.4 3.5-1.2.8-.9.9-1.7 1-2.2H270c-.3 1.1-1 1.4-1.8 1.4-2.1 0-2.1-2-2.1-2.7h6.9zm-21-5.8 3.7 10.1h3.3l3.6-10.1h-2.9l-2.3 6.9-2.3-6.9H252zm-4.5 10.1h3V38.7h-3v10.1zm-.1-11.8h3.2v-2.6h-3.2V37zm-12 11.8h3v-6.2c0-1.6 1.1-2.1 1.9-2.1 1.7 0 1.7 1.6 1.7 2.2v6h2.9v-6.1c0-1.3-.3-2.2-.7-2.7a3.7 3.7 0 0 0-2.9-1.4c-1.8 0-2.6 1-2.9 1.5v-5.7h-2.9v14.5zm-2.1-6.5c0-2.7-2.2-3.8-4.1-3.8-1.3 0-4.7.6-4.7 5.2 0 1.6.4 3 1.3 4s2.1 1.3 3.4 1.3c1.3 0 2.2-.3 2.9-.9 1.2-1 1.3-2.2 1.3-3h-2.9c-.1 1.8-1 1.9-1.4 1.9-.2 0-.5 0-.8-.3-.7-.7-.7-2.5-.7-3.1 0-1.1.2-3.2 1.6-3.2 1.1 0 1.3 1.5 1.3 1.9h2.8zm-16.1 6.5h3v-5c0-1.3.2-2.8 3.2-2.5v-2.7c-2.4-.1-3.1 1.1-3.4 2l-.1-1.9H217l.1 2.5v7.6zm-10.8-5.4 2.1-6.2 2 6.2h-4.1zm.4-9-5.2 14.5h3l1.1-3.1h5.7l1 3.1h3.1l-5-14.5h-3.7zm-20.3 11.5c0 .5.1 1.3.7 2 .9 1 2.2 1.2 3.5 1.2 3.1 0 4.6-1.7 4.6-3.5 0-1.4-.9-2.3-2.7-2.8l-1.8-.5c-.9-.2-1.4-.4-1.4-1.1 0-.6.6-1 1.4-1 .5 0 1.4.1 1.4 1.2h2.7c-.1-2-1.8-3-3.8-3-2.6 0-4.4 1.2-4.4 3.2 0 2.1 1.7 2.6 2.6 2.8l1.8.5c1.2.3 1.4.7 1.4 1.1 0 .6-.5 1.2-1.6 1.2-1.2 0-1.6-.7-1.7-1.4h-2.7zm-7.3 2.9h3v-5c0-1.3.2-2.8 3.2-2.5v-2.7c-2.4-.1-3.1 1.1-3.4 2l-.1-1.9H179l.1 2.5v7.6zm-5.6 0h3V38.7h-3v10.1zm-.1-11.8h3.2v-2.6h-3.2V37zm-5.4 7.1c0 1.1 0 1.9-.6 2.5-.3.3-.7.6-1.3.6-1 0-1.4-.8-1.4-1.4.1-1.3 1.4-1.9 3.3-1.7m3.1 4.7c-.2-.8-.2-1.7-.2-2.6v-4.1c0-.5 0-1.7-.7-2.5-1-1.2-2.8-1.3-3.6-1.3a6 6 0 0 0-3.1.8c-1.1.8-1.1 1.8-1.1 2.4h2.9c0-.2 0-.6.2-.9.3-.4.7-.6 1.1-.6.3 0 1.1.1 1.3.8l.1 1.3c-1 0-2.8 0-4 .6-1.9.9-2.1 2.3-2.1 3.1s.3 1.6.9 2.2c.4.4 1.1.8 2.5.8.6 0 1.9 0 3-1.6l.1 1.4h2.7zm-15.2 0h2.9v-8h1.9v-2.1h-1.9v-1.2c0-.5 0-1.3 1.5-1.3l.6.1v-2.1l-1.6-.1c-2.9 0-3.5 1.4-3.5 3.2v1.4h-1.5v2.1h1.5v8zm-7.3 0h2.9v-8h1.9v-2.1h-1.9v-1.2c0-.5 0-1.3 1.5-1.3l.6.1v-2.1l-1.6-.1c-2.9 0-3.5 1.4-3.5 3.2v1.4h-1.5v2.1h1.5v8zm-10.8-5.4 2.1-6.2 2 6.2h-4.1zm.3-9L133 48.8h3l1.1-3.1h5.7l1 3.1h3.1l-5-14.5h-3.7zm158-7.7-1 .1c-1.3 0-1.3-.6-1.3-1.5v-4.6h2.4v-2h-2.4v-3.1l-2.9 1.1v2h-2v2h1.9v5.5c0 .8 0 2.7 3 2.7l2.3-.3v-1.9zM278 28.8h3v-5.9c0-.8.2-1.3.4-1.5.3-.5.9-.8 1.5-.8.8 0 1.2.4 1.4.9.2.3.2.7.2 1.1v6.3h3v-5.5c0-1.9-.1-2.4-.3-3-.3-.7-1.1-1.9-3.1-1.9-2.2 0-3 1.3-3.3 1.8l-.1-1.5H278l.1 1.8v8.2zm-8.8-6.1c.1-1.2.6-2.3 1.9-2.3 1.7 0 1.8 1.8 1.8 2.3h-3.7zm6.7 1.8c0-.8.1-2.3-.6-3.7-.9-1.9-2.6-2.4-4.1-2.4-1.1 0-2.1.3-2.8.8-1.7 1.2-2.1 3.1-2.1 4.8 0 1.6.4 3 1.3 3.9a5.2 5.2 0 0 0 3.6 1.3c1.5 0 2.8-.4 3.5-1.2.8-.9.9-1.7 1-2.2H273c-.3 1.1-1 1.4-1.8 1.4-2.1 0-2.1-2-2.1-2.7h6.8zm-19.1-.6c0-1 .2-3.4 2.2-3.4 1.3 0 2.2 1.1 2.2 3.1 0 .5 0 1.5-.5 2.4-.3.6-1 1.1-1.9 1.1-1.4 0-2-1.5-2-3.2m4.3-3.9c-.3-.4-1-1.4-2.8-1.4-2.6 0-4.5 2.1-4.5 5.4 0 3.2 1.6 5 4.3 5 .4 0 1.2 0 2-.5.6-.4.8-.8 1-1.1l.1 1.5h3l-.1-1.6V14.4h-3V20zm-19-1.3V25c0 .5 0 1.9.7 2.7a4 4 0 0 0 3 1.4c1.9 0 2.7-1.2 3-1.6l.1 1.3h2.9l-.1-.7-.1-2.7v-6.7h-3v5.1c0 1.7 0 3.1-1.9 3.1-1.6 0-1.6-1.3-1.6-2.2v-6h-3zm-1.7 8-1 .1c-1.3 0-1.3-.6-1.3-1.5v-4.6h2.4v-2H238v-3.1l-2.9 1.1v2h-1.9v2h1.9v5.5c0 .8 0 2.7 3 2.7l2.3-.3v-1.9zm-20.1-2.5c0 1.4.1 5 5.6 5 4 0 6.2-2.1 6.2-4.7 0-2.8-2.5-3.5-5-4.1-2.1-.5-3.1-.8-3.1-2.1 0-1.2.9-2 2.4-2 2.1 0 2.3 1.7 2.3 2.2h3c0-.5 0-1.6-.8-2.7-1.1-1.4-2.9-1.7-4.4-1.7-4 0-5.7 2.1-5.7 4.5 0 2.5 1.9 3.5 5.3 4.4 1.8.4 2.7.7 2.7 1.9s-1.1 2-2.7 2c-2.7 0-2.6-2.1-2.6-2.7h-3.2zm-10.5 4.6h3V14.4h-3v14.4zm-5.4-4.7c0 1.1 0 1.9-.6 2.5-.3.3-.7.6-1.3.6-1 0-1.4-.8-1.4-1.4 0-1.3 1.4-1.9 3.3-1.7m3 4.7c-.2-.8-.2-1.7-.2-2.6v-4.1c0-.5 0-1.7-.7-2.5-1-1.2-2.8-1.3-3.6-1.3a6 6 0 0 0-3.1.8c-1.1.8-1.1 1.8-1.1 2.4h2.9c0-.2 0-.6.2-.9.3-.4.7-.6 1.1-.6.3 0 1.1.1 1.3.8l.1 1.3c-1 0-2.8 0-4 .6-1.9.9-2.1 2.3-2.1 3.1s.3 1.6.9 2.2c.4.4 1.1.8 2.5.8.6 0 1.9 0 3-1.6l.1 1.4h2.7zm-20.8 0h3v-5.9c0-.8.2-1.3.4-1.5.3-.5.9-.8 1.5-.8.8 0 1.2.4 1.4.9.2.3.2.7.2 1.1v6.3h3v-5.5c0-1.9-.1-2.4-.3-3-.3-.7-1.1-1.9-3.1-1.9-2.2 0-3 1.3-3.3 1.8l-.1-1.5h-2.8l.1 1.8v8.2zm-9.7-4.9c0-.9 0-3.4 2.2-3.4 2 0 2.2 1.9 2.2 3.2 0 2.7-.9 3.5-2.2 3.5-1.4-.1-2.2-1.1-2.2-3.3m-3 0c0 3.5 2.3 5.3 5.2 5.3 3.7 0 5.3-2.6 5.3-5.4 0-2.8-1.6-5.3-5.2-5.3-4.1 0-5.3 2.9-5.3 5.4m-5.1 4.9h3V18.7h-3v10.1zm-.1-11.8h3.2v-2.6h-3.2V17zm-1.7 9.7-1 .1c-1.3 0-1.3-.6-1.3-1.5v-4.6h2.4v-2h-2.4v-3.1l-2.9 1.1v2h-1.9v2h1.9v5.5c0 .8 0 2.7 3 2.7l2.3-.3v-1.9zm-11.5-2.6c0 1.1 0 1.9-.6 2.5-.3.3-.7.6-1.3.6-1 0-1.4-.8-1.4-1.4 0-1.3 1.4-1.9 3.3-1.7m3.1 4.7c-.2-.8-.2-1.7-.2-2.6v-4.1c0-.5 0-1.7-.7-2.5-1-1.2-2.8-1.3-3.6-1.3a6 6 0 0 0-3.1.8c-1.1.8-1.1 1.8-1.1 2.4h2.9c0-.2 0-.6.2-.9.3-.4.7-.6 1.1-.6.3 0 1.1.1 1.3.8l.1 1.3c-1 0-2.8 0-4 .6-1.9.9-2.1 2.3-2.1 3.1s.3 1.6.9 2.2c.4.4 1.1.8 2.5.8.6 0 1.9 0 3-1.6l.1 1.4h2.7zm-24.2 0h2.9v-12l5.6 12h4.3V14.4h-2.9v11.4l-5.4-11.4h-4.5v14.4z"/></svg>
