<svg xmlns="http://www.w3.org/2000/svg" viewBox="0 0 319.2 83.4"><path fill="none" stroke="#552500" stroke-width=".8" d="M123.1 0v63.1"/><path fill="#fd5000" d="M8.5 28.1h4.3c2.3 0 3.8-.9 3.8-3.2 0-1.7-1.5-3-3.5-3H8.5v6.2zm5 12.5c2.1 0 3.7-1.3 3.7-3.2a3.4 3.4 0 0 0-3.2-3.5H8.5v6.6l5 .1zM0 46.6V16h14.7c5.8 0 10.6 2.6 10.6 8 0 3.8-3.2 6.1-6.6 6.7v.1c4.1.5 7.4 3.1 7.4 7.5 0 8.9-11.4 8.3-11.7 8.3H0zm48.8-11.5h-6.2v-5.9h14.7v16.4c-6.9 1-8.2 1.7-15.6 1.7-9.5-.3-15.4-6.4-15.4-16s5.8-15.7 15.4-16c7.4-.2 15.2.9 15.3 9.8h-8.5c-.4-3-2.8-3.9-5.6-3.9-5.7 0-7.8 5-7.8 10 0 6 3 10 9.1 10 1.5 0 3-.2 4.4-.5v-5.6zm20.8 12.3c-4.9.1-9-3.7-9.1-8.6h3c.1 4.7 3.6 6.1 7.7 6.1 3.4 0 7.4-2 7.4-5.9 0-3-2.2-4.5-4.8-5.3-5-1.6-12.5-3.2-12.5-9.8 0-5.3 4.9-8.3 9.7-8.3 4 0 9.3 1.4 9.9 7.3h-3c-.1-3.8-3.5-4.7-6.7-4.7s-7.1 1.6-7.1 5.3c0 8.7 17.3 4.7 17.3 15.3 0 6.5-5.7 8.6-11.8 8.6m17.8-31.2V36c.2 5.5 3.4 8.9 8.4 8.9s8.2-3.3 8.4-8.9V16.2h2.8V36c-.1 6.6-3.8 11.4-11.2 11.4S84.7 42.5 84.6 36V16.2h2.8zm22.8 29.6h.5l.2.2v.7h.7v-.5l-.2-.6-.4-.2.5-.2.2-.5c0-.3-.1-.5-.3-.6l-.5-.1h-1.3v2.7h.7v-.9zm.6-.5-.4.1h-.3v-.8h.2l.4.1.2.3c.1.1 0 .2-.1.3m1.5-1.6c-.4-.5-1.1-.7-1.7-.7-.6 0-1.2.2-1.7.7-1 .9-1 2.5-.1 3.5.4.5 1.1.7 1.7.7.6 0 1.2-.2 1.7-.7.5-.4.7-1.1.7-1.7 0-.7-.2-1.3-.6-1.8m-.4.4a2 2 0 0 1 0 2.8c-.4.4-.8.6-1.4.6a2 2 0 0 1-1.4-.6 2 2 0 0 1 0-2.8 2 2 0 0 1 1.4-.6c.6-.1 1.1.2 1.4.6"/><path fill="#552500" d="m309.9 73.8 3.5 5.9v3.4h2.2v-3.4l3.5-5.9h-2.3l-2.2 4.3-2.2-4.3h-2.5zm-7.5 9.4h2.3v-7.8h3.1v-1.6h-8.5v1.6h3.1v7.8zm-8.5 0h2.2v-9.4h-2.2v9.4zm-12-3c0 .9 0 3.2 4.1 3.2 2.9 0 4.5-1.4 4.5-3s-1.8-2.3-3.6-2.7c-1.5-.3-2.3-.5-2.3-1.4s.7-1.3 1.7-1.3c1.5 0 1.7 1.1 1.7 1.4h2.2c0-.6-.2-1.3-.6-1.7-.9-.8-2-1.2-3.2-1.1-2.9 0-4.2 1.4-4.2 2.9s1.4 2.3 3.9 2.8c1.3.3 2 .4 2 1.3s-.8 1.3-2 1.3c-1.9 0-1.9-1.3-1.9-1.8l-2.3.1zm-9-5h1.5c.5-.1 1 0 1.5.2.4.2.6.6.6 1s-.2.9-.6 1.1a2 2 0 0 1-1.1.3H273l-.1-2.6zm-2.3 8h2.4v-3.8h2c.4 0 .9 0 1.1.5l.6 3.3h2.5a1 1 0 0 1-.3-.7l-.3-1.8c-.2-1.2-.3-2-1.9-2.2.5-.1 2.2-.6 2.2-2.3 0-.7-.3-1.4-.9-1.8-1-.6-2.1-.8-3.2-.6h-4l-.2 9.4zm-10.6 0h7.2v-1.6h-5v-2.5h4.5v-1.5h-4.5v-2.2h4.8v-1.5h-7v9.3zm-13.4-9.4 3.9 9.4h2.4l3.9-9.4h-2.2l-2.8 7.4-2.8-7.4h-2.4zm-5.4 9.4h2.3v-9.4h-2.3v9.4zm-13.1 0h2.1v-7.8l4.1 7.8h3.1v-9.4h-2.1v7.4l-3.9-7.4h-3.2l-.1 9.4zM216 73.8v5.6c-.1.8.1 1.6.5 2.3 1 1.4 2.9 1.6 4 1.6 2.1 0 4.6-.9 4.6-3.7v-5.9h-2.2v5.6c.1.6 0 1.1-.3 1.6-.5.6-1.2.9-2 .8-2.2 0-2.3-1.3-2.3-2.3v-5.7H216zm-16.9 9.4h7.2v-1.6h-5v-2.5h4.5v-1.5h-4.5v-2.2h4.8v-1.5h-7v9.3zm-8.6 0h2.3v-7.8h3.1v-1.6h-8.5v1.6h3.1v7.8zm-10.7-3.6 1.6-4 1.5 4h-3.1zm.3-5.8-3.8 9.4h2.1l.8-2h4.1l.8 2h2.3l-3.6-9.4h-2.7zM170 83.2h2.3v-7.8h3.1v-1.6h-8.5v1.6h3.1v7.8zm-14.2-3c0 .9.1 3.2 4.1 3.2 2.9 0 4.5-1.4 4.5-3s-1.8-2.3-3.6-2.7c-1.5-.3-2.3-.5-2.3-1.4s.7-1.3 1.7-1.3c1.6 0 1.7 1.1 1.7 1.4h2.1c0-.6-.2-1.3-.6-1.7-.9-.8-2-1.2-3.2-1.1-2.9 0-4.1 1.4-4.1 2.9s1.4 2.3 3.9 2.8c1.3.3 2 .4 2 1.3s-.8 1.4-2 1.4c-1.9 0-1.9-1.3-1.9-1.8h-2.3zm-18.8 3h2.1v-7.8l4.1 7.8h3.1v-9.4h-2.1v7.4l-3.9-7.4H137v9.4zm-10.9 0h7.2v-1.6h-4.9v-2.5h4.5v-1.5h-4.5v-2.2h4.8v-1.5h-7l-.1 9.3zm-10.9 0h7.2v-1.6h-4.9v-2.5h4.5v-1.5h-4.5v-2.2h4.8v-1.5h-7l-.1 9.3zm-9.7-8h1.5c.5-.1 1 0 1.5.2.4.2.6.6.6 1s-.2.9-.6 1.1c-.3.2-.7.3-1.2.3h-1.8v-2.6zm-2.2 8h2.3v-3.8h2c.4 0 .9 0 1.1.5.2.4.5 2.7.6 3.3h2.5a1 1 0 0 1-.3-.7l-.3-1.8c-.2-1.2-.3-2-1.9-2.2.5-.1 2.2-.6 2.2-2.3 0-.7-.3-1.4-.9-1.8-1-.6-2.1-.8-3.2-.6h-4l-.1 9.4zm-3.8-6.5c0-.7-.2-1.5-.8-2-1-.8-2.3-1.3-3.6-1.2-3.2 0-5.5 1.8-5.5 5.1-.1 1.3.4 2.6 1.4 3.5.8.7 2.1 1.2 4.5 1.2a12 12 0 0 0 3.8-.5v-4.7H95v1.6h2v2c-.6.2-1.1.2-1.7.2-.9.1-1.8-.2-2.5-.8-.6-.7-.9-1.6-.9-2.5 0-1.4.5-3.6 3.1-3.6.7 0 1.3.2 1.8.7.2.3.3.6.3 1h2.4zm-19.3 0c0-.7-.2-1.5-.8-2-1-.8-2.3-1.3-3.6-1.2-3.2 0-5.5 1.8-5.5 5.1-.1 1.3.4 2.6 1.4 3.5.8.7 2.1 1.2 4.5 1.2a12 12 0 0 0 3.8-.5v-4.7h-4.3v1.6h2v2c-.6.2-1.1.2-1.7.2-.9.1-1.8-.2-2.5-.8-.6-.7-.9-1.6-.9-2.5 0-1.4.5-3.6 3.1-3.6.7 0 1.3.2 1.8.7.2.3.3.6.3 1h2.4zm-22.7 6.5h2.1v-7.8l4.1 7.8h3.1v-9.4h-2.1v7.4l-3.9-7.4h-3.2v9.4zm-6.2 0h2.2v-9.4h-2.2v9.4zm-10 0h6.8v-1.6h-4.5v-7.8h-2.3v9.4zM24 73.8l2.5 9.4h2.6l2.1-7.2 1.9 7.2h2.5l2.7-9.4h-2.2l-1.7 7-1.8-7H30l-2 7-1.6-7H24zm-10.3 4.7c-.1-1 .2-1.9.8-2.7.5-.5 1.2-.8 1.9-.8 1.1-.1 2.1.6 2.4 1.7.2.5.3 1.1.3 1.7.1 1-.2 1.9-.7 2.7-.5.6-1.2 1-2 .9a2 2 0 0 1-1.9-.8c-.6-.8-.9-1.7-.8-2.7m-2.4.1c-.1 1.3.4 2.6 1.3 3.5 1 .9 2.4 1.3 3.7 1.3 1.4 0 2.7-.4 3.7-1.3a5 5 0 0 0 1.3-3.7c0-1.3-.5-2.6-1.3-3.5-1-.9-2.3-1.3-3.7-1.3-3.7 0-4.9 2.5-5 5m-9.1.4h1.3c1.1 0 2.4 0 2.4 1.3s-1.2 1.3-2.2 1.3H2.2V79zm0-3.8h1.5c.7 0 1.8 0 1.8 1.2s-1.2 1.2-1.8 1.2H2.2v-2.4zm-2.1 8h4c.9 0 1.8-.1 2.6-.4.9-.4 1.5-1.2 1.5-2.2 0-1.2-1-2.2-2.2-2.3l1.2-.6c.4-.4.6-.9.6-1.4 0-.8-.4-1.6-1.2-2-.8-.4-1.7-.5-2.6-.5H0v9.4zm309.7-37.3c0 .7.2 1.5.7 2 .9.9 2.2 1.3 3.5 1.2 3.1 0 4.6-1.7 4.6-3.5 0-1.4-.9-2.3-2.7-2.8l-1.8-.5c-.9-.2-1.4-.4-1.4-1.1s.6-1 1.4-1c.7-.1 1.3.4 1.4 1v.2h2.7c-.1-2-1.8-3-3.8-3-2.6 0-4.4 1.2-4.4 3.2s1.7 2.6 2.6 2.8l1.8.5c1.2.3 1.4.7 1.4 1.1s-.5 1.2-1.6 1.2c-.8.1-1.5-.4-1.7-1.2v-.2l-2.7.1zm-8.2-3.3c.1-1.2.6-2.3 1.9-2.3 1.7 0 1.8 1.8 1.8 2.3h-3.7zm6.7 1.9c.1-1.3-.1-2.5-.6-3.7a4.3 4.3 0 0 0-4.1-2.4c-1 0-2 .3-2.8.8a5.5 5.5 0 0 0-2.1 4.8c-.1 1.4.4 2.8 1.3 3.9 1 .9 2.3 1.3 3.6 1.3 1.3.1 2.6-.3 3.5-1.2.6-.6.9-1.4 1-2.2h-2.7c-.1.9-.9 1.5-1.8 1.4-2.1 0-2.1-2-2.1-2.7h6.8zm-14.7 4.3h3V38.7h-3v10.1zm-.1-11.8h3.2v-2.6h-3.2V37zm-7.7 11.9h3v-5c0-1.3.2-2.8 3.2-2.5v-2.7c-2.4-.1-3.1 1.1-3.4 2l-.1-1.9h-2.8l.1 2.5v7.6zm-5.4-4.8c.1.9-.1 1.8-.6 2.5-.3.4-.8.6-1.3.6-.8 0-1.4-.6-1.4-1.3v-.1c0-1.3 1.4-1.9 3.3-1.7m3 4.8c-.2-.8-.3-1.7-.2-2.6v-4.1c0-.9-.2-1.8-.7-2.5-1-.9-2.3-1.4-3.6-1.3-1.1 0-2.1.2-3.1.8-.7.6-1.2 1.4-1.1 2.4h2.9l.2-.9c.3-.4.7-.6 1.1-.6.6 0 1.1.3 1.3.8.1.4.2.9.1 1.3a9 9 0 0 0-4 .6 3.5 3.5 0 0 0-2.2 3.1c0 .8.3 1.6.9 2.2a4 4 0 0 0 5.5-.7l.1-.1.1 1.4 2.7.2zm-16.5 0h3v-5c0-1.3.2-2.8 3.2-2.5v-2.7c-2.4-.1-3.1 1.1-3.4 2l-.1-1.9h-2.8l.1 2.5v7.6zm-5.1-4.9c0 .5 0 3.1-2 3.1-1.3 0-2.3-1.1-2.3-3.4 0-.6 0-3.1 2.2-3.1s2.1 2.6 2.1 3.4m-7.2 4.8h2.9l.1-1.4c.6 1 1.8 1.7 3 1.6 2 0 4.2-1.3 4.2-5.1 0-3.4-1.9-5.3-4.4-5.3-1.1 0-2.2.5-2.9 1.4v-5.5h-3l.1 14.3zm-5.6 0h3V38.7h-3v10.1zm-.1-11.8h3.2v-2.6h-3.2V37zM238 48.8h9.4v-2.5h-6.2v-12H238v14.5zm-17.7-10.1 3.9 10.1-1.2 3.8h3l1.2-4 3.8-9.9h-3l-2.3 7-2.2-7h-3.2zm-1.2 8-1 .1c-1.3 0-1.3-.6-1.3-1.5v-4.5h2.4v-2h-2.4v-3l-2.9 1.1v2H212v2h1.9v5.5c0 .8 0 2.7 3 2.7a9 9 0 0 0 2.3-.3l-.1-2.1zm-11.7 2.1h3V38.7h-3v10.1zm0-11.8h3.2v-2.6h-3.2V37zm-10.8 8.9c0 .7.2 1.5.7 2 .9.9 2.2 1.3 3.5 1.2 3.1 0 4.6-1.7 4.6-3.5 0-1.4-.9-2.3-2.7-2.8l-1.8-.5c-.9-.2-1.4-.4-1.4-1.1s.6-1 1.4-1c.7-.1 1.3.4 1.4 1v.2h2.7c-.1-2-1.8-3-3.8-3-2.6 0-4.4 1.2-4.4 3.2s1.7 2.6 2.6 2.8l1.8.5c1.2.3 1.4.7 1.4 1.1s-.5 1.2-1.6 1.2c-.8.1-1.5-.4-1.7-1.2v-.2h-2.7zm-7.3 2.9h3v-5c0-1.3.2-2.8 3.2-2.5v-2.6c-2.4-.1-3.1 1.1-3.4 2l-.1-1.9h-2.8l.1 2.5v7.5zm-8.7-6.2c.1-1.2.6-2.3 1.9-2.3 1.7 0 1.8 1.8 1.8 2.3h-3.7zm6.6 1.9c.1-1.3-.1-2.5-.6-3.7a4.3 4.3 0 0 0-4.1-2.4c-1 0-2 .3-2.8.8a5.5 5.5 0 0 0-2.1 4.8c-.1 1.4.4 2.8 1.3 3.9 1 .9 2.3 1.3 3.6 1.3 1.3.1 2.6-.3 3.5-1.2.6-.6.9-1.4 1-2.2h-2.7c-.1.9-.9 1.5-1.8 1.4-2.1 0-2.1-2-2.1-2.7h6.8zm-21-5.8 3.7 10.1h3.3l3.6-10.1H174l-2.3 6.9-2.3-6.9h-3.2zm-4.4 10.1h3V38.7h-3v10.1zm-.2-11.8h3.2v-2.6h-3.2V37zm-12 11.8h3v-5.9c0-.5.1-1.1.4-1.5.4-.5.9-.8 1.5-.8s1.2.3 1.4.9l.2 1.1v6.3h3v-5.5c.1-1 0-2-.3-3a3 3 0 0 0-3.1-1.9c-1.3-.1-2.6.6-3.3 1.8l-.1-1.5h-2.8l.1 1.8v8.2zm-15.3-14.4V43c-.1 1.2.1 2.5.7 3.6 1.4 2.2 4 2.5 5.4 2.5 2.9 0 6.3-1.4 6.3-5.7v-9h-3V43c.1.8-.1 1.7-.5 2.5-.7.9-1.7 1.3-2.8 1.3-3 0-3.1-2-3.1-3.6v-8.8h-3zm145.1-8.5c0 .7.2 1.5.7 2 .9.9 2.2 1.3 3.5 1.2 3.1 0 4.6-1.7 4.6-3.5 0-1.4-.9-2.3-2.7-2.8l-1.8-.5c-.9-.2-1.4-.4-1.4-1.1s.6-1 1.4-1c.7-.1 1.3.4 1.4 1v.2h2.7c-.1-2-1.8-3-3.8-3-2.6 0-4.4 1.2-4.4 3.2s1.7 2.6 2.6 2.8l1.8.5c1.2.3 1.4.7 1.4 1.1s-.5 1.2-1.6 1.2c-.8.1-1.5-.4-1.7-1.2v-.2l-2.7.1zm-10.3 2.9h2.9v-5.5l3.1 5.5h3.5L275 23l3.5-4.4h-3.3l-3.1 4.2v-8.5h-2.9v14.5zm-9.6-4.9c0-.9 0-3.4 2.2-3.4 2 0 2.2 1.9 2.2 3.2 0 2.7-.9 3.5-2.2 3.5-1.5-.1-2.2-1.1-2.2-3.3m-3 0c0 3.5 2.3 5.3 5.2 5.3 3.7 0 5.3-2.6 5.3-5.4s-1.6-5.3-5.2-5.3c-4.1 0-5.3 2.9-5.3 5.4m-9.2 0c0-.9 0-3.4 2.2-3.4 2 0 2.2 1.9 2.2 3.2 0 2.7-.9 3.5-2.2 3.5-1.4-.1-2.2-1.1-2.2-3.3m-3 0c0 3.5 2.3 5.3 5.2 5.3 3.7 0 5.3-2.6 5.3-5.4s-1.6-5.3-5.2-5.3c-4 0-5.3 2.9-5.3 5.4m-4.7.1c0 .5 0 3.1-2 3.1-1.3 0-2.3-1.1-2.3-3.4 0-.6 0-3.1 2.2-3.1s2.2 2.6 2.1 3.4m-7.1 4.8h2.9l.1-1.4c.6 1 1.8 1.7 3 1.6 2 0 4.2-1.3 4.2-5.1 0-3.4-1.9-5.3-4.4-5.3-1.1 0-2.2.5-2.9 1.4v-5.6h-3l.1 14.4zm-1.9-2.1-1 .1c-1.3 0-1.3-.6-1.3-1.5v-4.6h2.4v-2h-2.4v-3l-2.9 1.1v2h-1.9v2h1.9v5.5c0 .8 0 2.7 3 2.7a9 9 0 0 0 2.3-.3l-.1-2zm-18.7-8 3.1 4.6-3.4 5.4h3.1l2.1-3.7 2 3.7h3.5l-3.3-5.2 3.3-4.9h-3.1l-2 3.3-1.9-3.3-3.4.1zm-7.5 4c.1-1.2.6-2.3 1.9-2.3 1.7 0 1.8 1.8 1.8 2.3h-3.7zm6.7 1.8c.1-1.3-.1-2.5-.6-3.7a4.3 4.3 0 0 0-4.1-2.4c-1 0-2 .3-2.8.8a5.5 5.5 0 0 0-2.1 4.8c-.1 1.4.4 2.8 1.3 3.9 1 .9 2.3 1.3 3.6 1.3a5 5 0 0 0 3.4-1.2c.6-.6.9-1.4 1-2.2H208c-.1.9-.9 1.5-1.8 1.4-2.1 0-2.1-2-2.1-2.7h7zm-16.5 4.3h3.1V16.7h4.3v-2.4h-11.8v2.4h4.3l.1 12.1zm-21 0h3v-6c0-.5.1-1.1.4-1.5.4-.5.9-.8 1.5-.8s1.2.3 1.4.9l.2 1.1v6.3h3v-5.5c.1-1 0-2-.3-3a3 3 0 0 0-3.1-1.9c-1.3-.1-2.6.6-3.3 1.8l-.1-1.5h-2.8l.1 1.8v8.3zm-8.8-6.1c.1-1.2.6-2.3 1.9-2.3 1.7 0 1.8 1.8 1.8 2.3h-3.7zm6.7 1.8c.1-1.3-.1-2.5-.6-3.7a4.3 4.3 0 0 0-4.1-2.4c-1 0-2 .3-2.8.8a5.5 5.5 0 0 0-2.1 4.8c-.1 1.4.4 2.8 1.3 3.9 1 .9 2.3 1.3 3.6 1.3 1.2 0 2.5-.4 3.4-1.2.6-.6.9-1.4 1-2.2h-2.7c-.1.9-.9 1.5-1.8 1.4-2.1 0-2.1-2-2.1-2.7h6.9zM154.9 27c-2.2 0-2.2-2.6-2.2-3.2 0-2.7 1.4-3.4 2.3-3.4 1.7 0 2 2.1 2 3.3 0 2-.8 3.3-2.1 3.3m-5.2-8.3v14h3v-5c.7.9 1.7 1.4 2.8 1.3 2.9 0 4.4-2.5 4.4-5.4 0-3.1-1.6-5-4.2-5-1.3-.1-2.4.6-3.1 1.6l-.1-1.4-2.8-.1zm-12.8 3c-.1-1.5.3-3 1.1-4.2a3 3 0 0 1 2.7-1.2c1.6 0 2.9 1 3.3 2.6.3.8.4 1.7.4 2.6.1 1.5-.2 2.9-1 4.1-.6.9-1.6 1.4-2.7 1.3a3 3 0 0 1-2.6-1.2 6 6 0 0 1-1.2-4m-3.2.1c-.1 2 .5 3.9 1.8 5.4a7 7 0 0 0 5.1 2c1.9.1 3.8-.7 5.1-2.1a8.8 8.8 0 0 0 1.8-5.7c.1-2-.6-4-1.8-5.5a6.5 6.5 0 0 0-5.1-2c-5.2.1-6.9 4-6.9 7.9"/></svg>
