<svg xmlns="http://www.w3.org/2000/svg" viewBox="0 0 263.3 83.4"><path fill="none" stroke="#552500" stroke-width=".8" d="M123.2 0v63.1"/><path fill="#fd5000" d="M8.5 28.4h4.3c2.3 0 3.8-.9 3.8-3.2 0-1.7-1.5-3-3.5-3H8.5v6.2zm4.9 12.4c2.1 0 3.7-1.3 3.7-3.2 0-1.7-1.2-3.3-3.1-3.4H8.5v6.6h4.9zM0 46.8V16.2h14.7c5.8 0 10.6 2.6 10.6 8 0 3.8-3.2 6.1-6.6 6.7v.1c4.1.5 7.4 3.1 7.4 7.5 0 8.9-11.4 8.3-11.7 8.3H0zm48.8-11.5h-6.2v-5.9h14.7v16.4c-6.9 1-8.2 1.7-15.6 1.7-9.5-.3-15.4-6.4-15.4-16s5.8-15.7 15.4-15.9c7.4-.2 15.2.9 15.4 9.8h-8.5c-.4-3-2.8-3.9-5.6-3.9-5.7 0-7.8 5-7.8 10 0 6 3 10 9.1 10 1.6 0 3.1-.3 4.4-.5l.1-5.7zm20.8 12.4c-4.9 0-9-3.6-9.1-8.6h3c.1 4.7 3.6 6.1 7.7 6.1 3.4 0 7.4-2 7.4-5.9 0-3-2.2-4.5-4.8-5.3-5-1.7-12.5-3.2-12.5-9.8 0-5.3 4.9-8.3 9.7-8.3 4 0 9.3 1.4 10 7.3h-3c-.1-3.8-3.5-4.7-6.6-4.7-3.2 0-7.1 1.6-7.1 5.3 0 8.7 17.3 4.7 17.3 15.3-.2 6.4-5.9 8.6-12 8.6m17.8-31.2v19.8c.2 5.5 3.4 8.9 8.4 8.9s8.2-3.4 8.4-8.9V16.5h2.8v19.8c-.1 6.6-3.8 11.4-11.2 11.4-7.4 0-11.1-4.8-11.2-11.4V16.5h2.8zM110.2 46h.5l.2.2v.7h.7v-.5l-.2-.6-.4-.2.5-.2.2-.5c0-.3-.1-.5-.4-.6l-.5-.1h-1.3V47h.7v-1zm.6-.5-.4.1h-.3v-.8h.2l.4.1.2.3c.1.1 0 .3-.1.3m1.4-1.5c-.5-.5-1-.7-1.7-.7a2 2 0 0 0-1.6.7c-.5.5-.7 1-.7 1.7s.2 1.2.7 1.7 1 .7 1.7.7 1.2-.2 1.7-.7.7-1 .7-1.7c-.1-.7-.3-1.2-.8-1.7m-.3.3c.4.4.6.9.6 1.4 0 .6-.2 1-.6 1.4s-.9.6-1.4.6-1-.2-1.4-.6c-.4-.4-.6-.9-.6-1.4s.2-1 .6-1.4.9-.6 1.4-.6c.6.1 1.1.3 1.4.6"/><path fill="#552500" d="M251.1 37.5c0 .6.1 1.7 1 2.6 1.2 1.3 2.9 1.6 4.6 1.6 4.2 0 6.1-2.3 6.1-4.6 0-1.8-1.1-3.1-3.6-3.7l-2.4-.7c-1.2-.3-1.8-.5-1.8-1.4 0-.8.8-1.3 1.9-1.3.6 0 1.8.1 1.9 1.6h3.6c-.1-2.7-2.3-3.9-5.1-3.9-3.5 0-5.9 1.6-5.9 4.2 0 2.7 2.3 3.4 3.4 3.7l2.4.7c1.5.4 1.9.9 1.9 1.5 0 .8-.7 1.6-2.1 1.6-1.6 0-2.2-1-2.2-1.8l-3.7-.1zm-14 4h3.9v-7.3l4.1 7.3h4.6l-4.9-7.6 4.6-5.8H245l-4.1 5.6V22.2H237v19.2h.1zM224 34.8c0-1.2 0-4.5 2.9-4.5 2.6 0 2.9 2.5 2.9 4.2 0 3.6-1.2 4.6-2.9 4.6-1.9.1-2.9-1.3-2.9-4.3m-4.1 0c0 4.7 3 7 6.8 7 4.8 0 7-3.4 7-7.2 0-3.7-2.1-7-6.9-7-5.2.2-6.9 4-6.9 7.2m-12.4 0c0-1.2 0-4.5 2.9-4.5 2.6 0 2.9 2.5 2.9 4.2 0 3.6-1.2 4.6-2.9 4.6-1.9.1-2.9-1.3-2.9-4.3m-4 0c0 4.7 3 7 6.8 7 4.8 0 7-3.4 7-7.2 0-3.7-2.1-7-6.9-7-5.3.2-6.9 4-6.9 7.2m-6.5.2c0 .7 0 4.1-2.7 4.1-1.8 0-3.1-1.5-3.1-4.5 0-.8 0-4.1 2.9-4.1S197 34 197 35m-9.5 6.5h3.8l.1-1.9c1.2 2.1 3.3 2.1 4 2.1 2.7 0 5.6-1.7 5.6-6.8 0-4.5-2.6-7.1-5.8-7.1-.7 0-2.5.1-3.8 1.8v-7.3h-3.9v19.2zm-2.6-2.8-1.3.1c-1.7 0-1.7-.8-1.8-2v-6h3.2v-2.6h-3.2V24l-3.9 1.4V28h-2.6v2.6h2.6V38c0 1.1 0 3.6 3.9 3.6.6 0 1.8-.1 3-.4v-2.5h.1zM160.8 28l4.3 6.2-4.5 7.2h4.1l2.7-4.9 2.7 4.9h4.6l-4.5-6.9 4.3-6.5h-4.1l-2.6 4.4-2.5-4.4h-4.5zm-10.4 5.2c.1-1.6.8-3 2.5-3 2.3 0 2.3 2.4 2.3 3h-4.8zm8.8 2.6c.1-1.1.1-3.1-.8-4.9-1.2-2.5-3.5-3.2-5.4-3.2-1.5 0-2.7.4-3.8 1.1-2.3 1.6-2.8 4.2-2.8 6.3s.5 3.9 1.7 5.2c1.4 1.5 3.6 1.7 4.7 1.7 2 0 3.7-.5 4.7-1.6 1.1-1.1 1.2-2.3 1.3-2.9h-3.6c-.4 1.5-1.4 1.9-2.3 1.9-2.7 0-2.7-2.7-2.7-3.6h9zm-20.3 5.7h4.1v-16h5.7v-3.2h-15.5v3.2h5.7v16zM255 73.6l3.2 5.9v3.4h2v-3.4l3.2-5.9h-2.1l-2 4.3-1.9-4.3H255zm-5.9 9.3h2v-7.8h2.8v-1.6h-7.6v1.6h2.8v7.8zm-6.8 0h2v-9.4h-2v9.4zm-9.9-3c0 .9 0 3.2 3.6 3.2 2.6 0 4-1.4 4-3.1 0-1.8-1.6-2.3-3.2-2.7-1.4-.3-2-.5-2-1.4 0-.8.6-1.3 1.5-1.3 1.4 0 1.5 1.1 1.5 1.4h1.9c0-.3 0-1.1-.5-1.7-.7-.9-1.9-1.1-2.8-1.1-2.6 0-3.7 1.4-3.7 2.9 0 1.6 1.2 2.3 3.5 2.8 1.2.3 1.8.4 1.8 1.3 0 .8-.7 1.3-1.8 1.3-1.7 0-1.7-1.3-1.7-1.8h-2.1v.2zm-7.2-4.8h1.4c.6 0 1 0 1.3.2.2.1.5.4.5 1.1s-.4 1-.5 1.1c-.3.3-.8.3-1 .3h-1.6l-.1-2.7zm-2 7.8h2.1v-3.8h1.8c.3 0 .8 0 1 .5l.5 3.3h2.2l-.3-.7-.3-1.8c-.2-1.2-.3-2-1.7-2.2.5-.1 2-.5 2-2.3 0-.6-.2-1.3-.8-1.8-.8-.6-1.8-.6-2.8-.6h-3.6l-.1 9.4zm-8.7 0h6.4v-1.6h-4.4v-2.5h4v-1.6h-4V75h4.3v-1.5h-6.3v9.4zm-11.2-9.3 3.5 9.4h2.2l3.5-9.4h-2L208 81l-2.5-7.4h-2.2zm-3.9 9.3h2v-9.4h-2v9.4zm-11 0h1.9v-7.8l3.6 7.8h2.8v-9.4h-1.9v7.4l-3.5-7.4h-2.9v9.4zm-11-9.3v5.6c0 .9 0 1.6.5 2.3.9 1.4 2.6 1.6 3.5 1.6 1.9 0 4.1-.9 4.1-3.7v-5.9h-2v5.6c0 .9-.1 1.3-.3 1.6-.5.8-1.5.8-1.8.8-2 0-2-1.3-2-2.3v-5.7l-2 .1zm-13.5 9.3h6.4v-1.6h-4.4v-2.5h4v-1.6h-4V75h4.3v-1.5h-6.3v9.4zm-6.9 0h2v-7.8h2.8v-1.6h-7.6v1.6h2.8v7.8zm-8.7-3.6 1.4-4 1.3 4h-2.7zm.3-5.7-3.4 9.4h1.9l.7-2h3.7l.7 2h2l-3.3-9.4h-2.3zm-8.2 9.3h2v-7.8h2.8v-1.6h-7.6v1.6h2.8v7.8zm-11.9-3c0 .9 0 3.2 3.6 3.2 2.6 0 4-1.4 4-3.1 0-1.8-1.6-2.3-3.2-2.7-1.4-.3-2-.5-2-1.4 0-.8.6-1.3 1.5-1.3 1.4 0 1.5 1.1 1.5 1.4h1.9c0-.3 0-1.1-.5-1.7-.7-.9-1.9-1.1-2.8-1.1-2.6 0-3.7 1.4-3.7 2.9 0 1.6 1.2 2.3 3.5 2.8 1.2.3 1.8.4 1.8 1.3 0 .8-.7 1.3-1.8 1.3-1.7 0-1.7-1.3-1.7-1.8h-2.1v.2zm-15.1 3h1.9v-7.8l3.6 7.8h2.8v-9.4h-1.9v7.4l-3.5-7.4h-2.9v9.4zm-8.9 0h6.4v-1.6h-4.4v-2.5h4v-1.6h-4V75h4.3v-1.5h-6.3v9.4zm-8.9 0h6.4v-1.6h-4.4v-2.5h4v-1.6h-4V75h4.3v-1.5h-6.3v9.4zm-7.9-7.8h1.4c.6 0 1 0 1.3.2.2.1.5.4.5 1.1s-.4 1-.5 1.1c-.3.3-.8.3-1 .3h-1.6v-2.7h-.1zm-1.9 7.8h2.1v-3.8h1.8c.3 0 .8 0 1 .5l.5 3.3h2.2l-.3-.7-.3-1.8c-.2-1.2-.3-2-1.7-2.2.5-.1 2-.5 2-2.3 0-.6-.2-1.3-.8-1.8-.8-.6-1.8-.6-2.8-.6h-3.6l-.1 9.4zm-2.6-6.5c0-.5-.1-1.2-.7-2-.7-.8-2-1.2-3.2-1.2-2.8 0-4.9 1.8-4.9 5.1 0 1 .2 2.5 1.2 3.5.7.7 1.8 1.2 4 1.2 1.9 0 2.8-.3 3.4-.5v-4.7h-3.8v1.6H81v2c-.2.1-.6.2-1.5.2-1.1 0-1.7-.3-2.2-.8-.7-.7-.8-1.9-.8-2.5 0-1.4.5-3.6 2.7-3.6.4 0 1.2.1 1.6.7l.3.9h2.1v.1zm-15.7 0c0-.5-.1-1.2-.7-2-.7-.8-2-1.2-3.2-1.2-2.8 0-4.9 1.8-4.9 5.1 0 1 .2 2.5 1.2 3.5.7.7 1.8 1.2 4 1.2 1.9 0 2.8-.3 3.4-.5v-4.7h-3.8v1.6h1.8v2c-.2.1-.6.2-1.5.2-1.1 0-1.7-.3-2.2-.8-.7-.7-.8-1.9-.8-2.5 0-1.4.5-3.6 2.7-3.6.4 0 1.2.1 1.6.7l.3.9h2.1v.1zm-19.4 6.5H50v-7.8l3.6 7.8h2.8v-9.4h-1.9v7.4L51 73.6h-2.9v9.3zm-4.7 0h2v-9.4h-2v9.4zm-8.1 0h6.1v-1.6h-4v-7.8h-2.1v9.4zm-14.7-9.3 2.3 9.4h2.3l1.8-7.2 1.7 7.2H31l2.4-9.4h-1.9l-1.5 7-1.7-7H26l-1.8 7-1.5-7h-2.1zm-8.3 4.6c0-1.1.2-2.1.7-2.7.4-.5 1-.8 1.7-.8 1 0 1.8.5 2.1 1.7.2.6.2 1.2.2 1.7 0 1.5-.3 2.2-.6 2.7-.4.6-.9.9-1.8.9a2 2 0 0 1-1.7-.8c-.5-.7-.6-1.7-.6-2.7m-2.1.1c0 .9.1 2.4 1.2 3.5.9.9 2.1 1.3 3.3 1.3.8 0 2.3-.2 3.3-1.3.8-.9 1.2-2.3 1.2-3.7 0-.9-.2-2.4-1.2-3.5-.9-1-2.3-1.3-3.3-1.3-3.4 0-4.5 2.5-4.5 5m-7.4.5H4c1 0 2.2 0 2.2 1.3s-1 1.3-2 1.3H2.8v-2.6zm0-3.9h1.4c.7 0 1.7 0 1.7 1.2s-1 1.2-1.6 1.2H2.8v-2.4zm-1.9 8h3.5c.4 0 1.6 0 2.4-.4.7-.4 1.4-1.1 1.4-2.2 0-1-.6-2-2-2.3.5-.1 1-.6 1.1-.6.5-.4.5-1.1.5-1.4 0-.5-.2-1.5-1.1-2-.7-.4-1.8-.4-2.3-.4H.9v9.3z"/></svg>
