<svg xmlns="http://www.w3.org/2000/svg" viewBox="0 0 316.3 83.4"><path fill="none" stroke="#000000" stroke-width=".8" d="M123.1.3v63.1"/><path fill="#000000" d="M8.5 28.4h4.3c2.3 0 3.8-.9 3.8-3.2 0-1.7-1.5-3-3.5-3H8.5v6.2zm5 12.5c2.1 0 3.7-1.3 3.7-3.2a3.4 3.4 0 0 0-3.2-3.5H8.5v6.6l5 .1zM0 46.9V16.3h14.7c5.8 0 10.6 2.6 10.6 8 0 3.8-3.2 6.1-6.6 6.7v.1c4.1.5 7.4 3.1 7.4 7.5 0 8.9-11.4 8.3-11.7 8.3H0zm48.8-11.5h-6.2v-5.9h14.7v16.4c-6.9 1-8.2 1.7-15.6 1.7-9.5-.3-15.4-6.4-15.4-16s5.8-15.7 15.4-16c7.4-.2 15.2.9 15.3 9.8h-8.5c-.4-3-2.8-3.9-5.6-3.9-5.7 0-7.8 5-7.8 10 0 6 3 10 9.1 10 1.5 0 3-.2 4.4-.5v-5.6zm20.8 12.2c-4.9.1-9-3.7-9.1-8.6h3c.1 4.7 3.6 6.1 7.7 6.1 3.4 0 7.4-2 7.4-5.9 0-3-2.2-4.5-4.8-5.3-5-1.7-12.5-3.2-12.5-9.8 0-5.3 4.9-8.3 9.7-8.3 4 0 9.3 1.4 9.9 7.3h-3c-.1-3.8-3.5-4.7-6.7-4.7s-7.1 1.6-7.1 5.3c0 8.7 17.3 4.7 17.3 15.3 0 6.6-5.7 8.6-11.8 8.6m17.8-31.2v19.8c.2 5.5 3.4 8.9 8.4 8.9s8.2-3.3 8.4-8.9V16.4h2.8v19.8c-.1 6.6-3.8 11.4-11.2 11.4s-11.1-4.9-11.2-11.4V16.4h2.8zm22.8 29.7h.5l.2.2v.7h.7v-.5l-.2-.6-.4-.2.5-.2.2-.5c0-.3-.1-.5-.3-.6l-.5-.1h-1.3V47h.7v-.9zm.6-.6-.4.1h-.3v-.8h.2l.4.1.2.3c.1.1 0 .3-.1.3m1.5-1.5c-.4-.5-1.1-.7-1.7-.7-.6 0-1.2.2-1.7.7-1 .9-1 2.5-.1 3.5.4.5 1.1.7 1.7.7.6 0 1.2-.2 1.7-.7.5-.4.7-1.1.7-1.7 0-.7-.2-1.3-.6-1.8m-.4.3a2 2 0 0 1 0 2.8c-.4.4-.8.6-1.4.6a2 2 0 0 1-1.4-.6 2 2 0 0 1 0-2.8 2 2 0 0 1 1.4-.6c.6 0 1.1.2 1.4.6"/><path fill="#000000" d="M307.5 36.2c0 .7.2 1.5.7 2 .9.9 2.2 1.3 3.5 1.2 3.1 0 4.6-1.7 4.6-3.5 0-1.4-.9-2.3-2.7-2.8l-1.8-.5c-.9-.2-1.4-.4-1.4-1.1 0-.7.6-1 1.4-1 .7-.1 1.3.4 1.4 1v.2h2.7c-.1-2-1.8-3-3.8-3-2.6 0-4.4 1.2-4.4 3.2s1.7 2.6 2.6 2.8l1.8.5c1.2.3 1.4.7 1.4 1.1s-.5 1.2-1.6 1.2c-.8.1-1.5-.4-1.7-1.2v-.2l-2.7.1zm-7.9-3.3c.1-1.2.6-2.3 1.9-2.3 1.7 0 1.8 1.8 1.8 2.3h-3.7zm6.6 1.9c.1-1.3-.1-2.5-.6-3.7a4.3 4.3 0 0 0-4.1-2.4c-1 0-2 .3-2.8.8a5.5 5.5 0 0 0-2.1 4.8c-.1 1.4.4 2.8 1.3 3.9 1 .9 2.3 1.3 3.6 1.3a5 5 0 0 0 3.5-1.2c.6-.6.9-1.4 1-2.2h-2.7c-.1.9-.9 1.5-1.8 1.4-2.1 0-2.1-2-2.1-2.7h6.8zm-14.7 4.3h3V29h-3v10.1zm-.1-11.8h3.2v-2.6h-3.2v2.6zm-6.9 11.8h3v-5c0-1.3.2-2.8 3.2-2.5v-2.7c-2.4-.1-3.1 1.1-3.4 2l-.1-1.9h-2.8l.1 2.5v7.6zm-5.4-4.7c.1.9-.1 1.8-.6 2.5-.3.4-.8.6-1.3.6-.8 0-1.4-.6-1.4-1.3v-.1c0-1.3 1.4-1.9 3.3-1.7m3.1 4.7c-.2-.8-.3-1.7-.2-2.6v-4.1c0-.9-.2-1.8-.7-2.5-1-.9-2.3-1.4-3.6-1.3-1.1 0-2.1.2-3.1.8-.7.6-1.2 1.4-1.1 2.4h2.9l.2-.9c.3-.4.7-.6 1.1-.6.6 0 1.1.3 1.3.8.1.4.2.9.1 1.3a9 9 0 0 0-4 .6 3.3 3.3 0 0 0-2.1 3.1c0 .8.3 1.6.9 2.2a4 4 0 0 0 5.5-.7l.1-.1.1 1.4 2.6.2zm-16.2 0h3v-5c0-1.3.2-2.8 3.2-2.5v-2.7c-2.4-.1-3.1 1.1-3.4 2l-.1-1.9h-2.8l.1 2.5v7.6zm-5.1-4.8c0 .5 0 3.1-2 3.1-1.3 0-2.3-1.1-2.3-3.4 0-.6 0-3.1 2.2-3.1s2.2 2.6 2.1 3.4m-7.1 4.8h2.9l.1-1.4c.6 1 1.8 1.7 3 1.6 2 0 4.2-1.3 4.2-5.1 0-3.4-1.9-5.3-4.4-5.3-1.1 0-2.2.5-2.9 1.4v-5.5h-3l.1 14.3zm-5.5 0h3V29h-3v10.1zm-.1-11.8h3.2v-2.6h-3.2v2.6zm-11 11.8h9.4v-2.5h-6.2v-12h-3.2v14.5zM219.4 29l3.9 10.1-1.3 3.8h3l1.2-4L230 29h-2.9l-2.3 7-2.2-7h-3.2zm-.8 8-1 .1c-1.3 0-1.3-.6-1.3-1.5V31h2.4v-2h-2.4v-3l-2.9 1.1v2h-1.9v2h1.9v5.5c0 .8 0 2.7 3 2.7a9 9 0 0 0 2.3-.3l-.1-2zm-11.5 2.1h3V29h-3v10.1zm-.1-11.8h3.2v-2.6H207v2.6zm-10.6 8.9c0 .7.2 1.5.7 2 .9.9 2.2 1.3 3.5 1.2 3.1 0 4.6-1.7 4.6-3.5 0-1.4-.9-2.3-2.7-2.8l-1.8-.5c-.9-.2-1.4-.4-1.4-1.1s.6-1 1.4-1c.7-.1 1.3.4 1.4 1v.2h2.7c-.1-2-1.8-3-3.8-3-2.6 0-4.4 1.2-4.4 3.2s1.7 2.6 2.6 2.8l1.8.5c1.2.3 1.4.7 1.4 1.1s-.5 1.2-1.6 1.2c-.8.1-1.5-.4-1.7-1.2v-.2l-2.7.1zm-7.1 2.9h3v-5c0-1.3.2-2.8 3.2-2.5v-2.7c-2.4-.1-3.1 1.1-3.4 2l-.1-2h-2.8l.1 2.5v7.7zm-8.6-6.1c.1-1.2.6-2.3 1.9-2.3 1.7 0 1.8 1.8 1.8 2.3h-3.7zm6.7 1.8c.1-1.3-.1-2.5-.6-3.7a4.3 4.3 0 0 0-4.1-2.4c-1 0-2 .3-2.8.8a5.5 5.5 0 0 0-2.1 4.8c-.1 1.4.4 2.8 1.3 3.9 1 .9 2.3 1.3 3.6 1.3 1.3.1 2.6-.4 3.6-1.2.6-.6.9-1.4 1-2.2h-2.7c-.1.9-.9 1.5-1.8 1.4-2.1 0-2.1-2-2.1-2.7h6.7zm-21-5.8 3.7 10.1h3.3L177 29h-2.9l-2.3 6.9-2.3-6.9h-3.1zM162 39.1h3V29h-3v10.1zm-.1-11.8h3.1v-2.6h-3.2l.1 2.6zm-12.1 11.8h3v-5.9c0-.5.1-1.1.4-1.5.4-.5.9-.8 1.5-.8s1.2.3 1.4.9l.2 1.1v6.3h3v-5.5c.1-1 0-2-.3-3a3 3 0 0 0-3.1-1.9c-1.3-.1-2.6.6-3.3 1.8l-.1-1.5h-2.8l.1 1.8v8.2zm-15.5-14.4v8.6c-.1 1.2.1 2.5.7 3.6 1.4 2.2 4 2.5 5.4 2.5 2.9 0 6.3-1.4 6.3-5.7v-9h-3v8.6c.1.8-.1 1.7-.5 2.5-.7.9-1.7 1.3-2.8 1.3-3 0-3.1-2-3.1-3.6v-8.8h-3zm173.4 48.8 3.2 5.9v3.4h2v-3.4l3.1-5.9h-2l-2 4.3-1.9-4.3h-2.4zm-7.7 9.4h2v-7.8h2.8v-1.6h-7.6v1.6h2.8v7.8zm-8.6 0h2v-9.4h-2v9.4zm-11.8-3c0 .9 0 3.2 3.6 3.2 2.6 0 4-1.4 4-3.1s-1.6-2.3-3.2-2.7c-1.4-.3-2-.5-2-1.4s.6-1.3 1.5-1.3c.8-.1 1.4.5 1.5 1.3v.2h2c0-.6-.2-1.2-.5-1.7a3.4 3.4 0 0 0-2.8-1.1c-2.6 0-3.7 1.4-3.7 2.9s1.2 2.3 3.5 2.8c1.2.3 1.8.4 1.8 1.3s-.7 1.3-1.8 1.3c-.8.1-1.6-.5-1.7-1.3v-.4h-2.2zm-9-4.9h1.4c.5-.1.9 0 1.3.2.3.2.5.6.5 1s-.2.8-.5 1.1c-.3.2-.6.3-1 .3h-1.6l-.1-2.6zm-2 7.9h2v-3.8h1.8c.3 0 .8 0 1 .5l.5 3.3h2.2l-.3-.7-.3-1.8c-.2-1.1-.3-2-1.7-2.2a2.4 2.4 0 0 0 1.2-4.1c-.8-.5-1.9-.8-2.9-.6h-3.6l.1 9.4zm-10.6 0h6.4v-1.6H260v-2.5h4v-1.5h-4V75h4.3v-1.5H258v9.4zm-13-9.3 3.5 9.4h2.2l3.4-9.4h-2l-2.5 7.4-2.5-7.4H245zm-5.8 9.3h2v-9.4h-2v9.4zm-12.7 0h1.9v-7.8l3.6 7.8h2.8v-9.4h-1.9v7.4l-3.5-7.4h-2.9v9.4zm-13-9.3v5.6c-.1.8.1 1.6.5 2.3a4 4 0 0 0 3.5 1.6c1.9 0 4.1-.9 4.1-3.7v-5.9h-2v5.6c.1.6 0 1.1-.3 1.6-.4.6-1.1.9-1.8.8-2 0-2-1.3-2-2.3v-5.7l-2 .1zm-17.1 9.3h6.4v-1.6h-4.4v-2.5h4v-1.5h-4V75h4.3v-1.5h-6.3v9.4zm-8.8 0h2v-7.8h2.8v-1.6h-7.6v1.6h2.8v7.8zm-10.5-3.5 1.4-4 1.3 4h-2.7zm.3-5.9-3.4 9.4h1.9l.7-2h3.7l.7 2h2l-3.3-9.4h-2.3zm-10 9.4h2v-7.8h2.8v-1.6h-7.6v1.6h2.8v7.8zm-13.8-3c0 .9 0 3.2 3.6 3.2 2.6 0 4-1.4 4-3.1s-1.6-2.3-3.2-2.7c-1.4-.3-2-.5-2-1.4s.6-1.3 1.6-1.3c.8 0 1.4.6 1.4 1.4v.1h2c0-.6-.2-1.2-.5-1.7a3.4 3.4 0 0 0-2.8-1.1c-2.6 0-3.7 1.4-3.7 2.9s1.2 2.3 3.5 2.8c1.2.3 1.8.4 1.8 1.3s-.7 1.3-1.8 1.3c-.8.1-1.6-.5-1.7-1.3v-.4h-2.2zm-18.8 3h1.9v-7.8l3.6 7.8h2.7v-9.4h-1.9v7.4l-3.5-7.4h-2.9l.1 9.4zm-10.8 0h6.4v-1.6H126v-2.5h4v-1.5h-4V75h4.3v-1.5H124v9.4zm-10.7 0h6.4v-1.6h-4.4v-2.5h4v-1.5h-4V75h4.3v-1.5h-6.3v9.4zm-9.7-7.9h1.3c.5-.1.9 0 1.3.2.3.2.5.6.5 1s-.2.8-.5 1.1c-.3.2-.6.3-1 .3h-1.6V75zm-2 7.9h2.1v-3.8h1.8c.3 0 .8 0 1 .5l.5 3.3h2.2l-.3-.7-.3-1.8c-.2-1.1-.3-2-1.7-2.2a2.4 2.4 0 0 0 1.2-4.1 4 4 0 0 0-2.8-.6h-3.6l-.1 9.4zm-4.4-6.5a3 3 0 0 0-.7-2c-.9-.8-2-1.2-3.2-1.1-2.8 0-4.9 1.8-4.9 5.1a5 5 0 0 0 1.2 3.5c.7.7 1.8 1.2 4 1.2 1.2 0 2.3-.2 3.4-.5v-4.7h-3.8v1.6H95v2l-1.5.2c-.8.1-1.6-.2-2.2-.8-.6-.7-.8-1.6-.8-2.6 0-1.4.4-3.6 2.7-3.6a2 2 0 0 1 1.6.7c.2.3.3.6.3 1h2.1zm-19.3 0a3 3 0 0 0-.7-2c-.9-.8-2-1.2-3.2-1.1-2.9 0-5 1.8-5 5.1a5 5 0 0 0 1.2 3.5c.7.7 1.8 1.2 4 1.2 1.2 0 2.3-.1 3.4-.5v-4.7h-3.8v1.6h1.8v2l-1.5.2c-.8.1-1.6-.2-2.2-.8-.6-.7-.8-1.6-.8-2.6 0-1.4.5-3.6 2.8-3.6a2 2 0 0 1 1.6.7c.2.3.3.6.3 1h2.1zm-21.4 6.5h1.9v-7.8l3.6 7.8h2.8v-9.4H63v7.4l-3.5-7.4h-2.9v9.4zm-6.5 0h2v-9.4h-2v9.4zm-9.9 0h6.1v-1.6h-4v-7.8H40l.1 9.4zm-16.6-9.4 2.3 9.4h2.3l1.9-7.2 1.7 7.2h2.2l2.4-9.4h-2l-1.5 7-1.6-7h-2.3l-1.8 7-1.5-7h-2.1zm-10.2 4.8c-.1-1 .1-1.9.7-2.7.4-.5 1.1-.8 1.7-.8 1 0 1.9.7 2.1 1.7.2.5.3 1.1.2 1.7.1.9-.2 1.9-.6 2.7-.4.6-1.1.9-1.8.9-.7.1-1.3-.2-1.7-.8-.4-.9-.6-1.8-.6-2.7m-2.1 0a5 5 0 0 0 1.2 3.5c.9.9 2.1 1.3 3.3 1.3 1.3 0 2.5-.4 3.3-1.3a6.3 6.3 0 0 0 1.2-3.7c0-1.3-.4-2.5-1.2-3.5-.9-.9-2-1.4-3.3-1.3-3.3 0-4.5 2.5-4.5 5m-9.2.5h1.2c1 0 2.2 0 2.2 1.3s-1 1.3-2 1.3H2v-2.6zM2 75h1.4C4 75 5 75 5 76.1s-1 1.2-1.6 1.2H2V75zM.1 83h3.5c.8 0 1.6-.1 2.4-.4.9-.4 1.4-1.3 1.4-2.2 0-1.2-.8-2.2-2-2.3.4-.1.8-.3 1.1-.6.3-.5.5-1 .5-1.5 0-.8-.4-1.5-1-2-.7-.3-1.5-.5-2.3-.4H.1V83z"/></svg>
